<svg id="Слой_1" data-name="Слой 1" xmlns="http://www.w3.org/2000/svg" viewBox="0 0 460.33 175.61"><defs><style>.cls-1{fill:#b1cb23;}.cls-2{fill:#3e3d3c;}.cls-3{fill:#3a3938;}.cls-4{fill:#bee6f6;}.cls-5{fill:#f9f9f9;}.cls-6{fill:#f4f4f4;}.cls-7{fill:#01a0e2;}.cls-8{fill:#b0ca20;}.cls-9{fill:#06a1e3;}.cls-10{fill:#b2b3b3;}.cls-11{fill:#04a1e2;}.cls-12{fill:#b1cb24;}.cls-13{fill:#444342;}.cls-14{fill:#fdfefd;}.cls-15{fill:#fcfdfe;}</style></defs><path class="cls-1" d="M465.41,27.94c-1.8,2.32-3.05,5.08-6,6.37a10.17,10.17,0,0,1-8.63-18.42,10.27,10.27,0,0,1,13.47,4.62c.39.73.11,1.83,1.17,2.19Z" transform="translate(-5.08 -4.45)"/><path class="cls-2" d="M388.19,180.06c-.27-3-.76-5.74,1.52-8.59,2-2.53,1.66-6.2,1.46-9.44-.14-2.41.56-3.18,3.06-3.15,6.56.07,6.44,0,6.62,6.37.09,2.87-1,5.85,1.57,8.64,1,1.13.07,4.06,0,6.17h-2.25c-.29-1.65.82-4.34-.67-4.8a15.12,15.12,0,0,0-8.09-.13c-2,.56-.55,3.25-1,4.93Zm9.86-12.85c0-1.12,0-2.24,0-3.37.07-1.6.09-2.86-2.24-2.82s-2.16,1.37-2.24,2.93c-.1,2-.44,4-.6,5.94-.1,1.1-1.55,2.92,1.13,2.82,1.71-.06,4.38,1.11,4-2.5A25,25,0,0,1,398.05,167.21Z" transform="translate(-5.08 -4.45)"/><path class="cls-3" d="M319.21,180.06c.18-3-.44-6,2-8.86,2-2.42,1.44-6.19,1.37-9.4,0-2.32.7-2.91,3-2.9,6.51,0,6.37-.08,6.57,6.29.08,2.93-1.08,6,1.78,8.76,1.08,1,.29,4,.36,6.11h-3c.37-5.17.37-5.17-4.42-5.17-.87,0-1.74.07-2.61,0-1.67-.16-2.61.32-2.47,2.22a18.48,18.48,0,0,1-.25,3Zm10.3-13c0-1.13-.08-2.26,0-3.37.17-1.86-.43-2.67-2.47-2.68s-2,1.22-2.05,2.65c-.12,2-.46,4-.61,5.94-.07,1-1.52,2.35-.12,2.93a7.58,7.58,0,0,0,4.38,0c1.48-.36.71-1.89.83-2.91A18.93,18.93,0,0,0,329.51,167.05Z" transform="translate(-5.08 -4.45)"/><path class="cls-4" d="M5.81,134.36H5.08V54.17a1.55,1.55,0,0,1,.71,0Q5.79,94.26,5.81,134.36Z" transform="translate(-5.08 -4.45)"/><path class="cls-5" d="M390.44,180.06c.43-1.68-1-4.37,1-4.93a15.12,15.12,0,0,1,8.09.13c1.49.46.38,3.15.67,4.8Z" transform="translate(-5.08 -4.45)"/><path class="cls-6" d="M321.46,180.06a18.48,18.48,0,0,0,.25-3c-.14-1.9.8-2.38,2.47-2.22.87.08,1.74,0,2.61,0,4.79,0,4.79,0,4.42,5.17Z" transform="translate(-5.08 -4.45)"/><path class="cls-7" d="M5.81,134.36q0-40.11,0-80.21c1.25-.16,2.07.73,3,1.28Q41.54,74.27,74.25,93.15c1.64.95,2.94,1.7,2.93,4.14-.13,25.46-.08,50.91-.09,76.36a18.15,18.15,0,0,1-.23,1.9Z" transform="translate(-5.08 -4.45)"/><path class="cls-8" d="M83.81,175.3v-3.55c0-24.47,0-48.95,0-73.42a5.18,5.18,0,0,1,3-5.26C108.43,80.69,130,68.17,151.64,55.7c3.59-2.07,3.6-2.07,3.61,2.13q0,36.72,0,73.43c0,1.79,0,3.28-1.95,4.38Q119.37,155.1,85.5,174.7A11.58,11.58,0,0,1,83.81,175.3Z" transform="translate(-5.08 -4.45)"/><path class="cls-9" d="M202.05,61.05c2-1.45,3.95-2.8,5.87-4.14a28.3,28.3,0,0,1,15.74-5.24c6.57-.2,12.16,1.58,15.37,7.82,1,1.87,1.78,1.46,3.11.53,4.82-3.4,9.88-6.3,15.68-7.72,13-3.17,22.29,3.29,23.12,16.57,1.26,20.08.24,40.19.55,60.29,0,2.47-1.06,3.27-3.39,3.24-11.32-.14-9,1.13-9.09-8.65-.14-15.73,0-31.46,0-47.19,0-12.56-7.09-17.1-18.63-12l-1,.45c-4.74,2-7.08,4.82-6.91,10.68.52,17.34.1,34.7.26,52.06,0,3.61-1.06,4.8-4.67,4.69-9.35-.27-7.9.83-7.93-8-.07-16.1,0-32.21,0-48.32,0-12.1-7.55-16.83-18.64-11.79-.46.2-.89.46-1.35.65-4.68,2-6.67,5.06-6.53,10.63.46,17.47.07,35,.25,52.43,0,3.57-1.2,4.51-4.54,4.43-9.49-.21-8.05.74-8.08-7.91-.07-17,0-34,0-50.94A60,60,0,0,0,189,58.53c-1.21-4.68,4.75-4.11,7.22-6.24,1.77-1.54,2.84.26,3.43,1.91C200.41,56.38,201.18,58.58,202.05,61.05Z" transform="translate(-5.08 -4.45)"/><path class="cls-1" d="M383.61,59.69c6.91-5.34,13.88-8.2,22-7.93,12.18.41,20.56,7.55,23.5,21.14a81.89,81.89,0,0,1-1.54,41.44c-6.05,20-28.94,26.9-45.57,14l-1.71-1.31a7.27,7.27,0,0,0-.55.73c-4.06,7.86-4,7.76-11.18,3-2.36-1.55-2.56-2.83-1.09-5.09,2.71-4.2,3.61-8.89,3.6-13.9-.07-30.2,0-60.39-.12-90.59,0-3.49.86-5.12,4.41-5.88,9.42-2,8.23-2.27,8.24,6.54C383.62,34.25,383.61,46.59,383.61,59.69Zm0,34.25V109.3c0,9.44,0,9.44,8.9,12.72,11.25,4.15,20-.3,22.78-12a88.59,88.59,0,0,0,1.12-34.22c-1.24-8.21-5.16-11.91-12.75-13-7.75-1.08-13.69,2.76-19.29,7.39-1.15,1-.74,2.31-.75,3.51C383.59,80.46,383.61,87.2,383.61,93.94Z" transform="translate(-5.08 -4.45)"/><path class="cls-10" d="M5.77,45.57,77.08,4.45V8.86q0,36.3,0,72.6c0,1.53.83,3.65-.63,4.48-1.26.72-2.6-1-3.86-1.75Q40.15,65.55,7.75,46.85C7.23,46.55,6.74,46.2,5.77,45.57Z" transform="translate(-5.08 -4.45)"/><path class="cls-11" d="M358.8,93.44c-.26,6.39-.79,12.71-2.81,18.82-4.53,13.71-15.15,21.92-28.74,22.16-14.53.26-25.71-7.3-30.47-21.3a61.87,61.87,0,0,1-.06-40.07c4.41-13.34,15.06-21,28.56-21.27,14.12-.24,24.85,7.08,30,20.39C357.94,79,358.59,86.2,358.8,93.44Zm-51.65-.58c-.11,6.65.37,13.22,2.76,19.51,3,7.9,8.65,12,16.29,12,7.46,0,13.31-4,16-11.82a60,60,0,0,0,.12-38.95c-2.55-7.77-8.51-11.81-16-11.87s-13.09,3.89-16.17,11.63C307.7,79.65,307,86.2,307.15,92.86Z" transform="translate(-5.08 -4.45)"/><path class="cls-12" d="M462.24,93.43c0,11.6-.07,23.21.06,34.82,0,3-.89,4.21-4,4.24-8.58.1-8.58.22-8.58-8.2,0-18.85-.06-37.69.06-56.54,0-2.83-.58-4.17-3.66-3.76a39.8,39.8,0,0,1-5.24,0c-5.57,0-7.68-3.13-5.8-8.47.57-1.6,1.78-1.51,3-1.52,6.87,0,13.74.12,20.6,0,3.29-.08,3.61,1.69,3.6,4.24C462.21,70,462.24,81.69,462.24,93.43Z" transform="translate(-5.08 -4.45)"/><path class="cls-3" d="M236.23,160.28c.21.07.52.29.65.22,3.17-2,6.27-2.55,9,.71,2.22,2.7,2.17,8.91,0,11.66a6,6,0,0,1-5.91,2.45,6.45,6.45,0,0,1-5.24-4.29c-3.49-8.82.83-17.64,9.9-20.34.93-.28,1.65-.62,2,.6s-.74,1.38-1.41,1.73c-3.14,1.66-6.9,2.36-8.79,5.92C236.24,159.38,235.94,159.75,236.23,160.28Zm8.6,7.07c-.12-.93-.21-1.67-.33-2.41-.35-2.16-1.25-3.85-3.77-3.81-2.34,0-3.11,1.69-3.57,3.64a10.82,10.82,0,0,0,.33,5.89,3.3,3.3,0,0,0,3.26,2.59,3.36,3.36,0,0,0,3.49-2.78C244.53,169.4,244.66,168.28,244.83,167.35Z" transform="translate(-5.08 -4.45)"/><path class="cls-2" d="M439.29,163.75c-1.51,1.24-1.42,2.61-2,3.65-.78,1.42-.35,4.11-2.52,4s-1.58-2.77-2.37-4.22a6.29,6.29,0,0,0-1.68-2.52c-.13,2.67-.23,5.35-.41,8-.05.88.41,2.19-1.24,2.18s-1.18-1.31-1.15-2.16c.19-4,.46-8,.69-12,.05-.88-.06-1.75,1.27-1.82a2,2,0,0,1,2.25,1.45c.81,2.32,1.67,4.62,2.76,7.6,1.09-3,2-5.31,2.71-7.65.39-1.25,1.18-1.44,2.27-1.38,1.24.07,1.28,1,1.33,1.86.22,4.11.43,8.22.67,12.33.05,1-.06,1.78-1.31,1.73s-1.27-1-1.27-1.85C439.28,170.09,439.29,167.15,439.29,163.75Z" transform="translate(-5.08 -4.45)"/><path class="cls-3" d="M205.76,164.07c-1,2.8-1.53,4.55-2.23,6.25a2.19,2.19,0,0,1-1.26,1.19c-.82.19-1.24-.46-1.6-1.22-.76-1.6-.63-3.69-3-5.24v8.13c0,.95-.14,1.78-1.4,1.69s-1.14-1-1.09-1.9c.21-4,.4-8,.63-12,.05-1,0-2,1.52-2.06a1.93,1.93,0,0,1,2.09,1.65c.7,2.25,1.59,4.44,2.48,6.86,1.62-2,1.92-4.38,2.73-6.53.48-1.26,1-2.24,2.64-2s1,1.52,1.06,2.37c.29,3.73.52,7.46.67,11.2,0,.84.67,2.2-1,2.32-1.93.14-1.27-1.43-1.37-2.39C206.39,170,206.78,167.54,205.76,164.07Z" transform="translate(-5.08 -4.45)"/><path class="cls-2" d="M222.26,158.39c3.63,0,6.91,4.37,6.07,7.93-.3,1.27-1.14,1.11-2,1.13-1.49,0-3-.1-4.48.05-1.11.1-2.77-.83-3.19.88s.57,3.11,2.06,4c1.68,1.06,3.38.66,5-.07.8-.36,1.4-.46,1.81.44s-.2,1.36-.9,1.69a8,8,0,0,1-6.87.31c-3.42-1.49-5-5.83-4-10.69C216.53,160.71,219.15,158.39,222.26,158.39Zm-.2,7.06c1-.77,3.39,1.11,3.21-1.61a3.31,3.31,0,0,0-6.62.08C218.71,166.44,220.93,164.76,222.06,165.45Z" transform="translate(-5.08 -4.45)"/><path class="cls-2" d="M259.8,158.4c3.62,0,6.91,4.38,6.08,7.93-.3,1.28-1.15,1.1-2,1.12-1.49,0-3-.1-4.48.05-1.11.1-2.76-.84-3.2.87s.56,3.11,2,4c1.67,1.06,3.37.67,5,0,.78-.34,1.41-.52,1.82.41s-.16,1.46-.91,1.69a14.27,14.27,0,0,1-3.95.93c-4.5,0-7.14-3.3-7.09-8.68C253.19,161.68,255.82,158.4,259.8,158.4Zm-.32,7c1.06-.76,3.36,1.09,3.32-1.52a3.31,3.31,0,0,0-6.62-.12C256.12,166.46,258.38,164.76,259.48,165.45Z" transform="translate(-5.08 -4.45)"/><path class="cls-3" d="M448.44,170.85c-.1-3,2-5,5.74-5.75,1.27-.24,3.33.53,2.93-2.09-.33-2.14-1.86-2.28-3.62-2.29-1.28,0-3.36,2-3.67-.13s2.5-1.88,4-2.1c3.79-.53,5.65,1.13,5.88,4.85.21,3.34-.42,6.73.59,10,.36,1.16-.93,2-1.23,1.7-1.92-2.17-3.43-.09-5.09.24A4.48,4.48,0,0,1,448.44,170.85Zm8.74-1.37c-.08-1.13.44-2.65-1.7-2.36s-4.3.65-4.38,3.48c-.05,1.6.79,2.79,2.41,2.59C455.54,172.94,457.39,172.13,457.18,169.48Z" transform="translate(-5.08 -4.45)"/><path class="cls-13" d="M350.63,167.21c0,2,0,4,0,6,0,1-.15,1.74-1.38,1.72s-1.39-.8-1.39-1.75c0-3.25,0-6.49,0-9.74,0-1.4-.13-2.33-1.95-2.35s-1.95.88-2,2.3c-.09,2.36-.39,4.72-.62,7.07a5.24,5.24,0,0,1-2,3.88c-.92.68-2.14,1.9-3.2.57s.49-1.74,1.38-2.29a3.73,3.73,0,0,0,1.52-3.23c.16-2.62.44-5.23.44-7.85,0-1.77.24-2.61,2.38-2.65C350.64,158.71,350.64,158.6,350.63,167.21Z" transform="translate(-5.08 -4.45)"/><path class="cls-13" d="M283,166.91a23.35,23.35,0,0,1,0,4.1c-.25,1.34,1.26,3.82-1.45,3.78-2.38,0-1.07-2.34-1.2-3.58-.23-2.22,0-4.49-.1-6.72-.09-1.35,1-3.42-1.93-3.41-2.6,0-1.78,1.82-2,3.11-.25,2-.37,4-.59,6a5.62,5.62,0,0,1-2.12,4.21c-.91.64-2.1,1.92-3.19.45-1.2-1.63.72-1.65,1.46-2.23a4.56,4.56,0,0,0,1.56-3.64,41.28,41.28,0,0,0,.23-6c-.32-3.19.63-4.35,4.06-4.13C283,159.18,283,158.92,283,166.91Z" transform="translate(-5.08 -4.45)"/><path class="cls-2" d="M421.2,166.66c-.13,3.35-.64,6.46-3.9,8.06a5.93,5.93,0,0,1-7.73-1.7c-2.39-2.87-2.5-9-.18-12a5.91,5.91,0,0,1,7.65-2C420.4,160.5,421,163.56,421.2,166.66Zm-2.9.48a22.68,22.68,0,0,0-.2-2.79c-.37-1.95-1.19-3.62-3.49-3.73s-3.28,1.57-3.72,3.48a12.74,12.74,0,0,0,.05,5.92c.45,1.78,1.45,3.25,3.57,3.21s3-1.54,3.49-3.31A15.9,15.9,0,0,0,418.3,167.14Z" transform="translate(-5.08 -4.45)"/><path class="cls-3" d="M368.78,167.1c0,2,0,4,0,6,0,.84.15,1.79-1.2,1.81s-1.28-.86-1.29-1.75a20.65,20.65,0,0,0,0-2.61c-.1-.86.59-2.12-1-2.36a2.3,2.3,0,0,0-2.9,1.67,16.94,16.94,0,0,1-1.53,4.16c-.71,1.09-2.09,2.14-3.43.91s.58-1.56,1-2.35c1.07-2.2,3.28-4.21.55-7.06-1.95-2-.59-5.45,2.29-6.15a32,32,0,0,1,6.29-.37c1.31-.06,1.26.89,1.26,1.78Zm-2.51-3.86c.42-1.64-.4-2.32-2.17-2.18s-3.42.32-3.29,2.5c.12,2,1.75,2.3,3.48,2.41C366.34,166.1,366.46,164.92,366.27,163.24Z" transform="translate(-5.08 -4.45)"/><path class="cls-13" d="M290.86,166.75c0-2,.06-4,0-6,0-1.37.52-2.26,1.84-2.23s1.05,1.27.93,2c-.57,3.3.44,4.79,4.09,4.88,2.64.08,4.11,2.28,3.92,5s-1.9,4.14-4.62,4.44c-6.07.67-6.14.63-6.14-5.53Zm2.79,3c.17,1.27-.74,3.22,1.91,3,1.73-.15,3.35-.39,3.38-2.58s-1.35-2.64-3.18-2.84C293.76,167.11,293.41,168.11,293.65,169.75Z" transform="translate(-5.08 -4.45)"/><path class="cls-5" d="M398.05,167.21a25,25,0,0,0,0,3c.42,3.61-2.25,2.44-4,2.5-2.68.1-1.23-1.72-1.13-2.82.16-2,.5-3.95.6-5.94.08-1.56-.09-2.89,2.24-2.93s2.31,1.22,2.24,2.82C398,165,398.05,166.09,398.05,167.21Z" transform="translate(-5.08 -4.45)"/><path class="cls-6" d="M329.51,167.05a18.93,18.93,0,0,1,0,2.61c-.12,1,.65,2.55-.83,2.91a7.58,7.58,0,0,1-4.38,0c-1.4-.58.05-1.92.12-2.93.15-2,.49-4,.61-5.94.08-1.43-.1-2.67,2.05-2.65s2.64.82,2.47,2.68C329.43,164.79,329.51,165.92,329.51,167.05Z" transform="translate(-5.08 -4.45)"/><path class="cls-14" d="M383.61,93.94c0-6.74,0-13.48,0-20.23,0-1.2-.4-2.55.75-3.51,5.6-4.63,11.54-8.47,19.29-7.39,7.59,1,11.51,4.75,12.75,13A88.59,88.59,0,0,1,415.29,110c-2.81,11.73-11.53,16.18-22.78,12-8.9-3.28-8.9-3.28-8.9-12.72Z" transform="translate(-5.08 -4.45)"/><path class="cls-15" d="M307.14,92.86c-.1-6.66.56-13.21,3-19.46,3.08-7.74,8.61-11.68,16.17-11.63s13.43,4.1,16,11.87a60,60,0,0,1-.12,39c-2.7,7.85-8.55,11.82-16,11.82-7.64,0-13.29-4.14-16.29-12C307.52,106.08,307,99.51,307.14,92.86Z" transform="translate(-5.08 -4.45)"/><path class="cls-6" d="M244.83,167.35c-.17.93-.3,2.05-.59,3.12a3.36,3.36,0,0,1-3.49,2.78,3.3,3.3,0,0,1-3.26-2.59,10.82,10.82,0,0,1-.33-5.89c.46-2,1.23-3.6,3.57-3.64,2.52,0,3.42,1.65,3.77,3.81C244.62,165.68,244.71,166.42,244.83,167.35Z" transform="translate(-5.08 -4.45)"/><path class="cls-6" d="M222.06,165.45c-1.13-.69-3.35,1-3.41-1.53a3.31,3.31,0,0,1,6.62-.08C225.45,166.56,223.08,164.68,222.06,165.45Z" transform="translate(-5.08 -4.45)"/><path class="cls-6" d="M259.48,165.45c-1.1-.69-3.36,1-3.3-1.64a3.31,3.31,0,0,1,6.62.12C262.84,166.54,260.54,164.69,259.48,165.45Z" transform="translate(-5.08 -4.45)"/><path class="cls-6" d="M457.18,169.49c.21,2.64-1.64,3.45-3.67,3.7-1.62.2-2.46-1-2.41-2.59.08-2.83,2.2-3.18,4.38-3.48S457.1,168.35,457.18,169.49Z" transform="translate(-5.08 -4.45)"/><path class="cls-5" d="M418.3,167.14a15.9,15.9,0,0,1-.3,2.78c-.47,1.77-1.37,3.27-3.49,3.31s-3.12-1.43-3.57-3.21a12.74,12.74,0,0,1-.05-5.92c.44-1.91,1.36-3.59,3.72-3.48s3.12,1.78,3.49,3.73A22.68,22.68,0,0,1,418.3,167.14Z" transform="translate(-5.08 -4.45)"/><path class="cls-6" d="M366.27,163.24c.19,1.68.07,2.86-2,2.73-1.73-.11-3.36-.38-3.48-2.41-.13-2.18,1.63-2.36,3.29-2.5S366.69,161.6,366.27,163.24Z" transform="translate(-5.08 -4.45)"/><path class="cls-5" d="M293.65,169.75c-.24-1.64.11-2.64,2.11-2.43,1.83.2,3.2.77,3.18,2.84s-1.65,2.43-3.38,2.58C292.91,173,293.82,171,293.65,169.75Z" transform="translate(-5.08 -4.45)"/></svg>